<svg width="508" height="538" viewBox="0 0 508 538" fill="none" xmlns="http://www.w3.org/2000/svg">
<path d="M151.766 16.5174C157.479 6.60677 168.049 0.500039 179.489 0.500036L361.839 0.50003C371.72 0.500037 381.046 5.06431 387.109 12.8665L529.836 196.561C535.929 204.404 538.036 214.632 535.537 224.245L472.489 466.807C469.433 478.565 459.982 487.578 448.093 490.074L203.398 541.447C198.533 542.468 193.497 542.342 188.689 541.079L58.3172 506.814C47.0208 503.845 38.2394 494.957 35.4066 483.626L16.5 408L0.503218 292.365C-0.471002 285.323 0.927671 278.157 4.47849 271.997L151.766 16.5174Z" fill="url(#paint0_linear_113_122)"/>
<defs>
<linearGradient id="paint0_linear_113_122" x1="486.818" y1="95.1934" x2="82.7281" y2="438.757" gradientUnits="userSpaceOnUse">
<stop stop-color="#10B46C"/>
<stop offset="0.583333" stop-color="#80D7B1" stop-opacity="0.53125"/>
<stop offset="0.770833" stop-color="#93DDBD" stop-opacity="0.451562"/>
<stop offset="1" stop-color="white" stop-opacity="0"/>
</linearGradient>
</defs>
</svg>
